<svg width="30" height="30" viewBox="0 0 30 30" fill="none" xmlns="http://www.w3.org/2000/svg">
<path d="M19.9995 10C19.9995 11.3261 19.4727 12.5979 18.535 13.5355C17.5973 14.4732 16.3256 15 14.9995 15C13.6734 15 12.4016 14.4732 11.464 13.5355C10.5263 12.5979 9.99949 11.3261 9.99949 10M4.54101 9.25173L3.66601 19.7517C3.47804 22.0074 3.38405 23.1352 3.76534 24.0052C4.10034 24.7696 4.68077 25.4004 5.41472 25.7978C6.25007 26.25 7.38181 26.25 9.64528 26.25H20.3537C22.6172 26.25 23.7489 26.25 24.5843 25.7978C25.3182 25.4004 25.8986 24.7696 26.2336 24.0052C26.6149 23.1352 26.5209 22.0074 26.333 19.7517L25.458 9.25173C25.2962 7.31094 25.2154 6.34054 24.7856 5.60607C24.4071 4.9593 23.8436 4.44075 23.1676 4.11731C22.4 3.75 21.4262 3.75 19.4787 3.75L10.5203 3.75C8.57277 3.75 7.59901 3.75 6.83138 4.11731C6.15542 4.44075 5.59186 4.9593 5.21339 5.60607C4.78361 6.34054 4.70274 7.31094 4.54101 9.25173Z" stroke="#312C5A" stroke-width="2" stroke-linecap="round" stroke-linejoin="round"/>
</svg>
