<svg width="205" height="39" viewBox="0 0 205 39" fill="none" xmlns="http://www.w3.org/2000/svg">
<g clip-path="url(#clip0_326_36)">
<path d="M35.7195 18.5304C35.7195 8.8048 27.8354 0.920654 18.1097 0.920654C8.38415 0.920654 0.5 8.8048 0.5 18.5304C0.5 27.3198 6.9396 34.6051 15.3582 35.9262V23.6207H10.887V18.5304H15.3582V14.6508C15.3582 10.2373 17.9873 7.79946 22.0097 7.79946C23.9358 7.79946 25.9516 8.1434 25.9516 8.1434V12.4771H23.7311C21.5437 12.4771 20.8613 13.8346 20.8613 15.2286V18.5304H25.7452L24.9645 23.6207H20.8613V35.9262C29.2799 34.6051 35.7195 27.3198 35.7195 18.5304Z" fill="#312C5A"/>
</g>
<g clip-path="url(#clip1_326_36)">
<path d="M67.4811 35.6188C81.1179 35.6188 88.5787 24.6079 88.5787 15.0622C88.5787 14.7527 88.5717 14.4362 88.5575 14.1267C90.0089 13.104 91.2614 11.8373 92.2562 10.386C90.9045 10.972 89.4694 11.3547 87.9998 11.521C89.5471 10.6173 90.7057 9.1976 91.2607 7.52511C89.8051 8.36567 88.2132 8.95861 86.5533 9.27852C85.4348 8.1206 83.9561 7.35393 82.3456 7.09702C80.7351 6.84012 79.0826 7.10729 77.6436 7.85724C76.2046 8.60719 75.0593 9.79814 74.3846 11.246C73.71 12.6938 73.5436 14.3178 73.9112 15.867C70.9637 15.7229 68.0802 14.9769 65.4476 13.6773C62.815 12.3777 60.4921 10.5535 58.6295 8.32305C57.6828 9.9134 57.3931 11.7953 57.8193 13.5863C58.2455 15.3773 59.3556 16.9429 60.924 17.9651C59.7465 17.9287 58.5949 17.6198 57.5642 17.064V17.1534C57.5631 18.8223 58.1553 20.4401 59.24 21.7318C60.3247 23.0234 61.835 23.9092 63.5142 24.2385C62.4235 24.5293 61.2788 24.5717 60.1686 24.3624C60.6424 25.7977 61.5643 27.053 62.8056 27.9532C64.0469 28.8535 65.5457 29.3536 67.0928 29.3839C64.4663 31.3942 61.2218 32.4845 57.8819 32.4794C57.2896 32.4785 56.6978 32.4431 56.1099 32.3734C59.5029 34.4944 63.4499 35.6209 67.4811 35.6188Z" fill="#312C5A"/>
</g>
<g clip-path="url(#clip2_326_36)">
<path d="M130.719 6.8723C135.548 6.8723 136.12 6.89294 138.019 6.97548C139.784 7.05115 140.737 7.34006 141.372 7.58082C142.213 7.89724 142.82 8.28246 143.448 8.89467C144.083 9.51376 144.472 10.0985 144.796 10.917C145.044 11.5361 145.34 12.4717 145.418 14.1845C145.502 16.0418 145.524 16.5989 145.524 21.2972C145.524 26.0023 145.502 26.5595 145.418 28.4099C145.34 30.1296 145.044 31.0582 144.796 31.6773C144.472 32.4959 144.076 33.0874 143.448 33.6997C142.813 34.3187 142.213 34.6971 141.372 35.0135C140.737 35.2543 139.777 35.5432 138.019 35.6188C136.113 35.7014 135.541 35.722 130.719 35.722C125.89 35.722 125.318 35.7014 123.419 35.6188C121.654 35.5432 120.701 35.2543 120.066 35.0135C119.226 34.6971 118.619 34.3119 117.99 33.6997C117.355 33.0806 116.967 32.4959 116.642 31.6773C116.395 31.0582 116.098 30.1227 116.021 28.4099C115.936 26.5526 115.915 25.9954 115.915 21.2972C115.915 16.5921 115.936 16.0349 116.021 14.1845C116.098 12.4648 116.395 11.5361 116.642 10.917C116.967 10.0985 117.362 9.50689 117.99 8.89467C118.626 8.27558 119.226 7.89724 120.066 7.58082C120.701 7.34006 121.661 7.05115 123.419 6.97548C125.318 6.89294 125.89 6.8723 130.719 6.8723ZM130.719 3.70117C125.813 3.70117 125.198 3.72181 123.271 3.80435C121.351 3.8869 120.031 4.18957 118.887 4.62293C117.694 5.07693 116.684 5.67539 115.682 6.65906C114.672 7.63585 114.058 8.61952 113.592 9.77516C113.147 10.8964 112.837 12.1759 112.752 14.0469C112.667 15.9317 112.646 16.5301 112.646 21.3109C112.646 26.0917 112.667 26.6901 112.752 28.5681C112.837 30.4391 113.147 31.7254 113.592 32.8398C114.058 34.0023 114.672 34.986 115.682 35.9628C116.684 36.9396 117.694 37.5449 118.88 37.992C120.031 38.4254 121.344 38.7281 123.264 38.8106C125.191 38.8932 125.806 38.9138 130.712 38.9138C135.619 38.9138 136.233 38.8932 138.16 38.8106C140.08 38.7281 141.401 38.4254 142.544 37.992C143.73 37.5449 144.74 36.9396 145.742 35.9628C146.745 34.986 147.366 34.0023 147.825 32.8467C148.27 31.7254 148.581 30.446 148.665 28.5749C148.75 26.697 148.771 26.0986 148.771 21.3178C148.771 16.537 148.75 15.9386 148.665 14.0607C148.581 12.1896 148.27 10.9033 147.825 9.78892C147.38 8.61952 146.766 7.63585 145.757 6.65906C144.754 5.68227 143.745 5.07693 142.558 4.62981C141.408 4.19645 140.095 3.89378 138.174 3.81123C136.24 3.72181 135.626 3.70117 130.719 3.70117Z" fill="#312C5A"/>
<path d="M130.719 12.2654C125.594 12.2654 121.436 16.317 121.436 21.311C121.436 26.305 125.594 30.3566 130.719 30.3566C135.845 30.3566 140.003 26.305 140.003 21.311C140.003 16.317 135.845 12.2654 130.719 12.2654ZM130.719 27.1786C127.394 27.1786 124.697 24.5509 124.697 21.311C124.697 18.0711 127.394 15.4434 130.719 15.4434C134.044 15.4434 136.741 18.0711 136.741 21.311C136.741 24.5509 134.044 27.1786 130.719 27.1786Z" fill="#312C5A"/>
<path d="M142.537 11.9075C142.537 13.0768 141.563 14.0192 140.37 14.0192C139.17 14.0192 138.203 13.07 138.203 11.9075C138.203 10.7381 139.177 9.79565 140.37 9.79565C141.563 9.79565 142.537 10.7449 142.537 11.9075Z" fill="#312C5A"/>
</g>
<g clip-path="url(#clip3_326_36)">
<path d="M201.795 3.70117H171.783C170.345 3.70117 169.183 4.83618 169.183 6.23945V36.3755C169.183 37.7788 170.345 38.9207 171.783 38.9207H201.795C203.233 38.9207 204.402 37.7788 204.402 36.3824V6.23945C204.402 4.83618 203.233 3.70117 201.795 3.70117ZM179.632 33.7134H174.404V16.9016H179.632V33.7134ZM177.018 14.611C175.339 14.611 173.984 13.2558 173.984 11.5843C173.984 9.91274 175.339 8.55761 177.018 8.55761C178.689 8.55761 180.044 9.91274 180.044 11.5843C180.044 13.249 178.689 14.611 177.018 14.611ZM199.195 33.7134H193.974V25.5414C193.974 23.5947 193.939 21.0839 191.257 21.0839C188.54 21.0839 188.127 23.2095 188.127 25.4038V33.7134H182.913V16.9016H187.92V19.1991H187.989C188.684 17.8784 190.39 16.482 192.928 16.482C198.218 16.482 199.195 19.9627 199.195 24.4889V33.7134Z" fill="#312C5A"/>
</g>
<defs>
<clipPath id="clip0_326_36">
<rect width="35.2195" height="35.2195" fill="white" transform="translate(0.5 0.920654)"/>
</clipPath>
<clipPath id="clip1_326_36">
<rect width="36.1463" height="35.2195" fill="white" transform="translate(56.1099 3.70117)"/>
</clipPath>
<clipPath id="clip2_326_36">
<rect width="36.1463" height="35.2195" fill="white" transform="translate(112.646 3.70117)"/>
</clipPath>
<clipPath id="clip3_326_36">
<rect width="35.2195" height="35.2195" fill="white" transform="translate(169.183 3.70117)"/>
</clipPath>
</defs>
</svg>
